<?xml version="1.0" encoding="UTF-8" standalone="no"?>
<svg
   enable-background="new 0 0 24 24"
   height="24px"
   viewBox="0 0 24 24"
   width="24px"
   fill="#000000"
   version="1.1"
   id="svg1393"
   sodipodi:docname="coffee_black_24dp.svg"
   inkscape:version="1.1.2 (0a00cf5339, 2022-02-04, custom)"
   xmlns:inkscape="http://www.inkscape.org/namespaces/inkscape"
   xmlns:sodipodi="http://sodipodi.sourceforge.net/DTD/sodipodi-0.dtd"
   xmlns="http://www.w3.org/2000/svg"
   xmlns:svg="http://www.w3.org/2000/svg">
  <defs
     id="defs1397" />
  <sodipodi:namedview
     id="namedview1395"
     pagecolor="#ffffff"
     bordercolor="#666666"
     borderopacity="1.0"
     inkscape:pageshadow="2"
     inkscape:pageopacity="0.0"
     inkscape:pagecheckerboard="0"
     showgrid="false"
     inkscape:zoom="33.666667"
     inkscape:cx="11.985149"
     inkscape:cy="12"
     inkscape:window-width="1920"
     inkscape:window-height="1017"
     inkscape:window-x="-8"
     inkscape:window-y="-8"
     inkscape:window-maximized="1"
     inkscape:current-layer="svg1393" />
  <g
     id="g1387">
    <path
       d="M0,0h24v24H0V0z"
       fill="none"
       id="path1385" />
  </g>
  <g
     id="g1391"
     style="fill:#dad2d0;fill-opacity:1">
    <path
       d="M18.5,3H6C4.9,3,4,3.9,4,5v5.71c0,3.83,2.95,7.18,6.78,7.29c3.96,0.12,7.22-3.06,7.22-7v-1h0.5c1.93,0,3.5-1.57,3.5-3.5 S20.43,3,18.5,3z M16,5v3H6V5H16z M18.5,8H18V5h0.5C19.33,5,20,5.67,20,6.5S19.33,8,18.5,8z M4,19h16v2H4V19z"
       id="path1389"
       style="fill:#dad2d0;fill-opacity:1" />
  </g>
</svg>
