<?xml version="1.0" encoding="UTF-8" standalone="no"?>
<svg
   enable-background="new 0 0 24 24"
   height="24px"
   viewBox="0 0 24 24"
   width="24px"
   fill="#000000"
   version="1.1"
   id="svg1630"
   sodipodi:docname="icecream_black_24dp.svg"
   inkscape:version="1.1.2 (0a00cf5339, 2022-02-04, custom)"
   xmlns:inkscape="http://www.inkscape.org/namespaces/inkscape"
   xmlns:sodipodi="http://sodipodi.sourceforge.net/DTD/sodipodi-0.dtd"
   xmlns="http://www.w3.org/2000/svg"
   xmlns:svg="http://www.w3.org/2000/svg">
  <defs
     id="defs1634" />
  <sodipodi:namedview
     id="namedview1632"
     pagecolor="#ffffff"
     bordercolor="#666666"
     borderopacity="1.0"
     inkscape:pageshadow="2"
     inkscape:pageopacity="0.0"
     inkscape:pagecheckerboard="0"
     showgrid="false"
     inkscape:zoom="33.666667"
     inkscape:cx="11.985149"
     inkscape:cy="12"
     inkscape:window-width="1920"
     inkscape:window-height="1017"
     inkscape:window-x="-8"
     inkscape:window-y="-8"
     inkscape:window-maximized="1"
     inkscape:current-layer="svg1630" />
  <g
     id="g1624">
    <rect
       fill="none"
       height="24"
       width="24"
       id="rect1622" />
  </g>
  <g
     id="g1628"
     style="fill:#dad2d0;fill-opacity:1">
    <path
       d="M8.79,12.4l3.26,6.22l3.17-6.21c-0.11-0.08-0.21-0.16-0.3-0.25 C14.08,12.69,13.07,13,12,13s-2.08-0.31-2.92-0.84C8.99,12.25,8.89,12.33,8.79,12.4z M6.83,12.99C5.25,12.9,4,11.6,4,10 c0-1.49,1.09-2.73,2.52-2.96C6.75,4.22,9.12,2,12,2s5.25,2.22,5.48,5.04C18.91,7.27,20,8.51,20,10c0,1.59-1.24,2.9-2.81,2.99 L12.07,23L6.83,12.99z"
       fill-rule="evenodd"
       id="path1626"
       style="fill:#dad2d0;fill-opacity:1" />
  </g>
</svg>
