<?xml version="1.0" encoding="UTF-8" standalone="no"?>
<svg
   height="24px"
   viewBox="0 0 24 24"
   width="24px"
   fill="#000000"
   version="1.1"
   id="svg2076"
   sodipodi:docname="local_pizza_black_24dp.svg"
   inkscape:version="1.1.2 (0a00cf5339, 2022-02-04, custom)"
   xmlns:inkscape="http://www.inkscape.org/namespaces/inkscape"
   xmlns:sodipodi="http://sodipodi.sourceforge.net/DTD/sodipodi-0.dtd"
   xmlns="http://www.w3.org/2000/svg"
   xmlns:svg="http://www.w3.org/2000/svg">
  <defs
     id="defs2080" />
  <sodipodi:namedview
     id="namedview2078"
     pagecolor="#ffffff"
     bordercolor="#666666"
     borderopacity="1.0"
     inkscape:pageshadow="2"
     inkscape:pageopacity="0.0"
     inkscape:pagecheckerboard="0"
     showgrid="false"
     inkscape:zoom="33.666667"
     inkscape:cx="11.985149"
     inkscape:cy="12"
     inkscape:window-width="1920"
     inkscape:window-height="1017"
     inkscape:window-x="-8"
     inkscape:window-y="-8"
     inkscape:window-maximized="1"
     inkscape:current-layer="svg2076" />
  <path
     d="M0 0h24v24H0z"
     fill="none"
     id="path2072" />
  <path
     d="M12 2C8.43 2 5.23 3.54 3.01 6L12 22l8.99-16C18.78 3.55 15.57 2 12 2zM7 7c0-1.1.9-2 2-2s2 .9 2 2-.9 2-2 2-2-.9-2-2zm5 8c-1.1 0-2-.9-2-2s.9-2 2-2 2 .9 2 2-.9 2-2 2z"
     id="path2074"
     style="fill:#dad2d0;fill-opacity:1" />
</svg>
